<svg width="25" height="24" viewBox="0 0 25 24" fill="none" xmlns="http://www.w3.org/2000/svg">
<path d="M20.917 6.75H4.41699C4.00278 6.75 3.66699 7.08579 3.66699 7.5V19.5C3.66699 19.9142 4.00278 20.25 4.41699 20.25H20.917C21.3312 20.25 21.667 19.9142 21.667 19.5V7.5C21.667 7.08579 21.3312 6.75 20.917 6.75Z" stroke="#727272" stroke-width="1.5" stroke-linecap="round" stroke-linejoin="round"/>
<path d="M16.4165 6.75V5.25C16.4165 4.85218 16.2585 4.47064 15.9772 4.18934C15.6959 3.90804 15.3143 3.75 14.9165 3.75H10.4165C10.0187 3.75 9.63715 3.90804 9.35584 4.18934C9.07454 4.47064 8.9165 4.85218 8.9165 5.25V6.75" stroke="#727272" stroke-width="1.5" stroke-linecap="round" stroke-linejoin="round"/>
<path d="M21.6671 11.8413C18.9318 13.4239 15.8265 14.2548 12.6664 14.2498C9.50676 14.2548 6.40202 13.4241 3.66699 11.8421" stroke="#727272" stroke-width="1.5" stroke-linecap="round" stroke-linejoin="round"/>
<path d="M11.5415 11.25H13.7915" stroke="#727272" stroke-width="1.5" stroke-linecap="round" stroke-linejoin="round"/>
</svg>
