<svg width="18" height="19" viewBox="0 0 18 19" fill="none" xmlns="http://www.w3.org/2000/svg">
<path d="M12 2V17H2V2H12ZM13 0H1C0.45 0 0 0.45 0 1V19H14V1C14 0.45 13.55 0 13 0Z" fill="#727272"/>
<path d="M16 6V17H14V6H16ZM17 4H13C12.45 4 12 4.45 12 5V19H18V5C18 4.45 17.55 4 17 4Z" fill="#727272"/>
<path d="M5.5 4H4.5C4.22 4 4 4.22 4 4.5V5.5C4 5.78 4.22 6 4.5 6H5.5C5.78 6 6 5.78 6 5.5V4.5C6 4.22 5.78 4 5.5 4Z" fill="#727272"/>
<path d="M9.5 4H8.5C8.22 4 8 4.22 8 4.5V5.5C8 5.78 8.22 6 8.5 6H9.5C9.78 6 10 5.78 10 5.5V4.5C10 4.22 9.78 4 9.5 4Z" fill="#727272"/>
<path d="M5.5 8H4.5C4.22 8 4 8.22 4 8.5V9.5C4 9.78 4.22 10 4.5 10H5.5C5.78 10 6 9.78 6 9.5V8.5C6 8.22 5.78 8 5.5 8Z" fill="#727272"/>
<path d="M9.5 8H8.5C8.22 8 8 8.22 8 8.5V9.5C8 9.78 8.22 10 8.5 10H9.5C9.78 10 10 9.78 10 9.5V8.5C10 8.22 9.78 8 9.5 8Z" fill="#727272"/>
<path d="M5.5 12H4.5C4.22 12 4 12.22 4 12.5V13.5C4 13.78 4.22 14 4.5 14H5.5C5.78 14 6 13.78 6 13.5V12.5C6 12.22 5.78 12 5.5 12Z" fill="#727272"/>
<path d="M9.5 12H8.5C8.22 12 8 12.22 8 12.5V13.5C8 13.78 8.22 14 8.5 14H9.5C9.78 14 10 13.78 10 13.5V12.5C10 12.22 9.78 12 9.5 12Z" fill="#727272"/>
</svg>
