<svg width="13" height="12" viewBox="0 0 13 12" fill="none" xmlns="http://www.w3.org/2000/svg">
<path d="M7.05469 9C7.60697 9 8.05469 9.44771 8.05469 10C8.05469 10.5523 7.60697 11 7.05469 11H5.05469C4.5024 11 4.05469 10.5523 4.05469 10C4.05469 9.44771 4.5024 9 5.05469 9H7.05469ZM9.05469 5C9.60697 5 10.0547 5.44772 10.0547 6C10.0547 6.55228 9.60697 7 9.05469 7H3.05469C2.5024 7 2.05469 6.55228 2.05469 6C2.05469 5.44772 2.5024 5 3.05469 5H9.05469ZM11.0547 1C11.607 1 12.0547 1.44772 12.0547 2C12.0547 2.55228 11.607 3 11.0547 3H1.05469C0.502403 3 0.0546875 2.55228 0.0546875 2C0.0546875 1.44772 0.502403 1 1.05469 1H11.0547Z" fill="#32324D"/>
</svg>
