<svg width="1440" height="723" viewBox="0 0 1440 723" fill="none" xmlns="http://www.w3.org/2000/svg">
<g clip-path="url(#clip0_5_22317)">
<g filter="url(#filter0_f_5_22317)">
<rect x="585" y="132" width="327" height="43" fill="#6C43F4"/>
</g>
<path d="M1077.8 271.683L1078.53 271.877L1108.66 252.739H1108.82V252.644L1139.68 233.046H1139.83V232.95L1170.69 213.353H1170.84V213.257L1201.71 193.659H1201.86V193.563L1232.72 173.966H1232.87V173.87L1263.74 154.272H1263.89V154.176L1294.75 134.579H1294.9V134.483L1325.76 114.886H1325.92V114.79L1356.78 95.1924H1356.93V95.0967L1387.79 75.499H1387.94V75.4023L1418.81 55.8057H1418.96V55.709L1449.82 36.1123H1449.97V36.0156L1480.83 16.4189H1480.99V16.3223L1512.72 -3.83008L1511.27 -4.21777L1480.99 15.0146V14.9189H1366.06L1390.57 -3.86133L1389.1 -4.18652L1364.17 14.9189H1254.83L1274.73 -3.89062L1273.26 -4.15625L1253.07 14.9189H1148.02L1163.63 -3.91895L1162.14 -4.12891L1146.36 14.9189H1044.46L1055.99 -3.94629L1054.5 -4.10059L1042.88 14.9189H943.184L950.792 -3.97266L949.294 -4.07422L941.646 14.9189H843.361L847.144 -3.99902L845.645 -4.0498L841.851 14.9189H744.25V-4.02344H742.75V14.9189H645.148L641.354 -4.0498L639.855 -3.99902L643.638 14.9189H545.351L537.703 -4.07422L536.207 -3.97266L543.814 14.9189H444.122L432.5 -4.10059L431.007 -3.94629L442.536 14.9189H340.632L324.856 -4.12891L323.371 -3.91895L338.973 14.9189H233.923L213.741 -4.15625L212.264 -3.89062L232.166 14.9189H122.829L97.896 -4.18652L96.4312 -3.86133L120.939 14.9189H6.01416V15.0166L-24.2769 -4.21777L-25.7261 -3.83008L6.01416 16.3252V16.4189H6.16357L37.0278 36.0176V36.1123H37.1772L68.0425 55.7119V55.8057H68.1909L99.0571 75.4053V75.499H99.2046L130.071 95.0986V95.1924H130.219L161.084 114.792V114.886H161.233L192.098 134.485V134.579H192.248L223.113 154.179V154.272H223.261L254.126 173.872V173.966H254.276L285.141 193.565V193.659H285.29L316.155 213.259V213.353H316.304L347.168 232.951V233.046H347.318L378.183 252.646V252.739H378.333L408.471 271.877L409.196 271.683V272.433H1077.8V271.683ZM8.22314 16.4189H122.897L146.639 34.6123H37.0278V34.71L8.22314 16.4189ZM124.786 16.4189H233.752L253.001 34.6123H148.528L124.786 16.4189ZM235.51 16.4189H340.215L355.284 34.6123H254.759L235.51 16.4189ZM341.875 16.4189H443.452L454.569 34.6123H356.943L341.875 16.4189ZM445.039 16.4189H544.418L551.745 34.6123H456.156L445.039 16.4189ZM545.956 16.4189H643.938L647.577 34.6123H553.282L545.956 16.4189ZM645.448 16.4189H742.75V34.6123H649.086L645.448 16.4189ZM744.25 16.4189H841.551L837.913 34.6123H744.25V16.4189ZM843.061 16.4189H941.042L933.715 34.6123H839.422L843.061 16.4189ZM942.58 16.4189H1041.96L1030.84 34.6123H935.253L942.58 16.4189ZM1043.55 16.4189H1145.12L1130.05 34.6123H1032.43L1043.55 16.4189ZM1146.78 16.4189H1251.49L1232.24 34.6123H1131.71L1146.78 16.4189ZM1253.24 16.4189H1362.21L1338.47 34.6123H1234L1253.24 16.4189ZM1449.97 34.6123H1340.36L1364.1 16.4189H1478.77L1449.97 34.708V34.6123ZM39.2378 36.1123H148.596L172.338 54.3057H68.0425V54.4033L39.2378 36.1123ZM150.485 36.1123H254.589L273.838 54.3057H174.227L150.485 36.1123ZM256.346 36.1123H356.527L371.595 54.3057H275.595L256.346 36.1123ZM358.186 36.1123H455.486L466.603 54.3057H373.254L358.186 36.1123ZM457.073 36.1123H552.349L559.675 54.3057H468.19L457.073 36.1123ZM553.886 36.1123H647.876L651.515 54.3057H561.212L553.886 36.1123ZM649.386 36.1123H742.75V54.3057H653.025L649.386 36.1123ZM744.25 36.1123H837.613L833.974 54.3057H744.25V36.1123ZM839.123 36.1123H933.111L925.785 54.3057H835.484L839.123 36.1123ZM934.649 36.1123H1029.93L1018.81 54.3057H927.323L934.649 36.1123ZM1031.51 36.1123H1128.81L1113.74 54.3057H1020.4L1031.51 36.1123ZM1130.47 36.1123H1230.65L1211.4 54.3057H1115.4L1130.47 36.1123ZM1232.41 36.1123H1336.51L1312.77 54.3057H1213.16L1232.41 36.1123ZM1418.96 54.3057H1314.66L1338.4 36.1123H1447.76L1418.96 54.4004V54.3057ZM70.2515 55.8057H174.295L198.038 73.999H99.0571V74.0967L70.2515 55.8057ZM176.184 55.8057H275.425L294.674 73.999H199.926L176.184 55.8057ZM277.183 55.8057H372.838L387.907 73.999H296.432L277.183 55.8057ZM374.498 55.8057H467.52L478.637 73.999H389.566L374.498 55.8057ZM469.107 55.8057H560.28L567.606 73.999H480.224L469.107 55.8057ZM561.817 55.8057H651.815L655.454 73.999H569.143L561.817 55.8057ZM653.325 55.8057H742.75V73.999H656.963L653.325 55.8057ZM744.25 55.8057H833.674L830.036 73.999H744.25V55.8057ZM835.184 55.8057H925.18L917.854 73.999H831.545L835.184 55.8057ZM926.718 55.8057H1017.89L1006.77 73.999H919.392L926.718 55.8057ZM1019.48 55.8057H1112.5L1097.43 73.999H1008.36L1019.48 55.8057ZM1114.16 55.8057H1209.81L1190.56 73.999H1099.09L1114.16 55.8057ZM1211.57 55.8057H1310.81L1287.07 73.999H1192.32L1211.57 55.8057ZM1387.94 73.999H1288.96L1312.7 55.8057H1416.75L1387.94 74.0938V73.999ZM101.266 75.499H199.995L223.737 93.6924H130.071V93.79L101.266 75.499ZM201.883 75.499H296.262L315.511 93.6924H225.625L201.883 75.499ZM298.019 75.499H389.15L404.218 93.6924H317.268L298.019 75.499ZM390.809 75.499H479.554L490.671 93.6924H405.877L390.809 75.499ZM481.141 75.499H568.21L575.537 93.6924H492.258L481.141 75.499ZM569.748 75.499H655.753L659.392 93.6924H577.074L569.748 75.499ZM657.263 75.499H742.75V93.6924H660.902L657.263 75.499ZM744.25 75.499H829.736L826.097 93.6924H744.25V75.499ZM831.246 75.499H917.25L909.923 93.6924H827.607L831.246 75.499ZM918.788 75.499H1005.86L994.741 93.6924H911.461L918.788 75.499ZM1007.44 75.499H1096.19L1081.12 93.6924H996.328L1007.44 75.499ZM1097.85 75.499H1188.98L1169.73 93.6924H1082.78L1097.85 75.499ZM1190.73 75.499H1285.12L1261.37 93.6924H1171.49L1190.73 75.499ZM1356.93 93.6924H1263.26L1287 75.499H1385.73L1356.93 93.7871V93.6924ZM132.28 95.1924H225.694L249.436 113.386H161.084V113.483L132.28 95.1924ZM227.583 95.1924H317.098L336.347 113.386H251.325L227.583 95.1924ZM318.856 95.1924H405.461L420.53 113.386H338.105L318.856 95.1924ZM407.12 95.1924H491.588L502.706 113.386H422.188L407.12 95.1924ZM493.175 95.1924H576.141L583.467 113.386H504.292L493.175 95.1924ZM577.678 95.1924H659.692L663.331 113.386H585.004L577.678 95.1924ZM661.202 95.1924H742.75V113.386H664.84L661.202 95.1924ZM744.25 95.1924H825.797L822.159 113.386H744.25V95.1924ZM827.307 95.1924H909.319L901.993 113.386H823.668L827.307 95.1924ZM910.857 95.1924H993.824L982.707 113.386H903.531L910.857 95.1924ZM995.411 95.1924H1079.88L1064.81 113.386H984.293L995.411 95.1924ZM1081.54 95.1924H1168.14L1148.89 113.386H1066.47L1081.54 95.1924ZM1169.9 95.1924H1259.42L1235.67 113.386H1150.65L1169.9 95.1924ZM1325.92 113.386H1237.56L1261.3 95.1924H1354.72L1325.92 113.481V113.386ZM163.294 114.886H251.393L275.135 133.079H192.098V133.176L163.294 114.886ZM253.282 114.886H337.935L357.184 133.079H277.024L253.282 114.886ZM339.692 114.886H421.772L436.84 133.079H358.941L339.692 114.886ZM423.431 114.886H503.623L514.74 133.079H438.5L423.431 114.886ZM505.209 114.886H584.072L591.398 133.079H516.327L505.209 114.886ZM585.609 114.886H663.63L667.269 133.079H592.935L585.609 114.886ZM665.14 114.886H742.75V133.079H668.779L665.14 114.886ZM744.25 114.886H821.859L818.22 133.079H744.25V114.886ZM823.369 114.886H901.388L894.062 133.079H819.73L823.369 114.886ZM902.926 114.886H981.79L970.672 133.079H895.6L902.926 114.886ZM983.376 114.886H1063.57L1048.5 133.079H972.259L983.376 114.886ZM1065.23 114.886H1147.31L1128.06 133.079H1050.16L1065.23 114.886ZM1149.06 114.886H1233.72L1209.98 133.079H1129.81L1149.06 114.886ZM1294.9 133.079H1211.86L1235.6 114.886H1323.7L1294.9 133.175V133.079ZM194.308 134.579H277.092L300.834 152.772H223.113V152.87L194.308 134.579ZM278.981 134.579H358.771L378.02 152.772H302.723L278.981 134.579ZM360.529 134.579H438.083L453.152 152.772H379.778L360.529 134.579ZM439.742 134.579H515.657L526.774 152.772H454.81L439.742 134.579ZM517.243 134.579H592.002L599.329 152.772H528.36L517.243 134.579ZM593.54 134.579H667.569L671.208 152.772H600.866L593.54 134.579ZM669.079 134.579H742.75V152.772H672.717L669.079 134.579ZM744.25 134.579H817.92L814.282 152.772H744.25V134.579ZM819.43 134.579H893.458L886.131 152.772H815.792L819.43 134.579ZM894.996 134.579H969.756L958.639 152.772H887.669L894.996 134.579ZM971.342 134.579H1047.26L1032.19 152.772H960.225L971.342 134.579ZM1048.91 134.579H1126.47L1107.22 152.772H1033.85L1048.91 134.579ZM1128.23 134.579H1208.02L1184.28 152.772H1108.98L1128.23 134.579ZM1263.89 152.772H1186.16L1209.91 134.579H1292.69L1263.89 152.867V152.772ZM225.323 154.272H302.792L326.535 172.466H254.126V172.562L225.323 154.272ZM304.68 154.272H379.608L398.857 172.466H328.422L304.68 154.272ZM381.365 154.272H454.394L469.462 172.466H400.614L381.365 154.272ZM456.053 154.272H527.69L538.807 172.466H471.122L456.053 154.272ZM529.277 154.272H599.933L607.259 172.466H540.394L529.277 154.272ZM601.47 154.272H671.507L675.146 172.466H608.796L601.47 154.272ZM673.017 154.272H742.75V172.466H676.656L673.017 154.272ZM744.25 154.272H813.982L810.343 172.466H744.25V154.272ZM815.492 154.272H885.527L878.201 172.466H811.853L815.492 154.272ZM887.065 154.272H957.722L946.605 172.466H879.739L887.065 154.272ZM959.309 154.272H1030.94L1015.88 172.466H948.192L959.309 154.272ZM1032.6 154.272H1105.63L1086.38 172.466H1017.53L1032.6 154.272ZM1107.39 154.272H1182.32L1158.58 172.466H1088.14L1107.39 154.272ZM1232.87 172.466H1160.46L1184.21 154.272H1261.67L1232.87 172.562V172.466ZM256.336 173.966H328.492L352.234 192.159H285.141V192.257L256.336 173.966ZM330.379 173.966H400.444L419.693 192.159H354.122L330.379 173.966ZM402.202 173.966H470.706L485.774 192.159H421.451L402.202 173.966ZM472.364 173.966H539.724L550.841 192.159H487.432L472.364 173.966ZM541.31 173.966H607.864L615.191 192.159H552.427L541.31 173.966ZM609.401 173.966H675.446L679.084 192.159H616.727L609.401 173.966ZM676.956 173.966H742.75V192.159H680.594L676.956 173.966ZM744.25 173.966H810.043L806.405 192.159H744.25V173.966ZM811.553 173.966H877.596L870.27 192.159H807.915L811.553 173.966ZM879.134 173.966H945.689L934.572 192.159H871.807L879.134 173.966ZM947.275 173.966H1014.63L999.565 192.159H936.158L947.275 173.966ZM1016.29 173.966H1084.8L1065.55 192.159H1001.22L1016.29 173.966ZM1086.55 173.966H1156.62L1132.88 192.159H1067.3L1086.55 173.966ZM1201.86 192.159H1134.77L1158.51 173.966H1230.66L1201.86 192.255V192.159ZM287.351 193.659H354.192L377.934 211.853H316.155V211.949L287.351 193.659ZM356.079 193.659H421.281L440.53 211.853H379.821L356.079 193.659ZM423.038 193.659H487.016L502.084 211.853H442.287L423.038 193.659ZM488.675 193.659H551.757L562.875 211.853H503.744L488.675 193.659ZM553.344 193.659H615.794L623.122 211.853H564.461L553.344 193.659ZM617.332 193.659H679.384L683.023 211.853H624.658L617.332 193.659ZM680.894 193.659H742.75V211.853H684.533L680.894 193.659ZM744.25 193.659H806.105L802.466 211.853H744.25V193.659ZM807.615 193.659H869.666L862.339 211.853H803.976L807.615 193.659ZM871.204 193.659H933.655L922.538 211.853H863.876L871.204 193.659ZM935.242 193.659H998.322L983.253 211.853H924.125L935.242 193.659ZM999.981 193.659H1063.96L1044.71 211.853H984.913L999.981 193.659ZM1065.72 193.659H1130.92L1107.18 211.853H1046.47L1065.72 193.659ZM1170.84 211.853H1109.06L1132.81 193.659H1199.65L1170.84 211.948V211.853ZM318.365 213.353H379.891L403.633 231.546H347.168V231.643L318.365 213.353ZM381.778 213.353H442.117L461.366 231.546H405.52L381.778 213.353ZM443.875 213.353H503.328L518.396 231.546H463.124L443.875 213.353ZM504.986 213.353H563.792L574.909 231.546H520.054L504.986 213.353ZM565.377 213.353H623.725L631.052 231.546H576.495L565.377 213.353ZM625.262 213.353H683.323L686.961 231.546H632.589L625.262 213.353ZM684.833 213.353H742.75V231.546H688.47L684.833 213.353ZM744.25 213.353H802.167L798.529 231.546H744.25V213.353ZM803.676 213.353H861.735L854.409 231.546H800.038L803.676 213.353ZM863.273 213.353H921.622L910.504 231.546H855.946L863.273 213.353ZM923.208 213.353H982.011L966.943 231.546H912.09L923.208 213.353ZM983.669 213.353H1043.12L1023.87 231.546H968.601L983.669 213.353ZM1044.88 213.353H1105.22L1081.48 231.546H1025.63L1044.88 213.353ZM1139.83 231.546H1083.37L1107.11 213.353H1168.63L1139.83 231.643V231.546ZM349.379 233.046H405.591L429.333 251.239H378.183V251.336L349.379 233.046ZM407.478 233.046H462.954L482.203 251.239H431.22L407.478 233.046ZM464.71 233.046H519.638L534.708 251.239H483.96L464.71 233.046ZM521.297 233.046H575.825L586.942 251.239H536.366L521.297 233.046ZM577.412 233.046H631.656L638.983 251.239H588.529L577.412 233.046ZM633.193 233.046H687.261L690.9 251.239H640.52L633.193 233.046ZM688.771 233.046H742.75V251.239H692.409L688.771 233.046ZM744.25 233.046H798.228L794.59 251.239H744.25V233.046ZM799.738 233.046H853.804L846.478 251.239H796.099L799.738 233.046ZM855.342 233.046H909.587L898.47 251.239H848.015L855.342 233.046ZM911.174 233.046H965.7L950.631 251.239H900.057L911.174 233.046ZM967.359 233.046H1022.29L1003.04 251.239H952.29L967.359 233.046ZM1024.04 233.046H1079.52L1055.78 251.239H1004.79L1024.04 233.046ZM1108.82 251.239H1057.67L1081.41 233.046H1137.62L1108.82 251.335V251.239ZM380.393 252.739H431.291L455.033 270.933H409.196V271.028L380.393 252.739ZM456.919 270.933L433.177 252.739H483.79L503.04 270.933H456.919ZM504.796 270.933L485.547 252.739H535.95L551.018 270.933H504.796ZM552.677 270.933L537.608 252.739H587.859L598.975 270.933H552.677ZM600.562 270.933L589.445 252.739H639.586L646.914 270.933H600.562ZM648.451 270.933L641.124 252.739H691.2L694.837 270.933H648.451ZM696.347 270.933L692.708 252.739H742.75V270.933H696.347ZM744.25 270.933V252.739H794.291L790.652 270.933H744.25ZM792.162 270.933L795.799 252.739H845.874L838.547 270.933H792.162ZM840.084 270.933L847.412 252.739H897.554L886.437 270.933H840.084ZM888.024 270.933L899.14 252.739H949.389L934.32 270.933H888.024ZM935.979 270.933L951.047 252.739H1001.45L982.201 270.933H935.979ZM983.958 270.933L1003.21 252.739H1053.82L1030.08 270.933H983.958ZM1077.8 270.933H1031.97L1055.71 252.739H1106.6L1077.8 271.029V270.933Z" fill="url(#paint0_linear_5_22317)"/>
<path d="M1077.8 271.683L1078.53 271.877L1108.66 252.739H1108.82V252.644L1139.68 233.046H1139.83V232.95L1170.69 213.353H1170.84V213.257L1201.71 193.659H1201.86V193.563L1232.72 173.966H1232.87V173.87L1263.74 154.272H1263.89V154.176L1294.75 134.579H1294.9V134.483L1325.76 114.886H1325.92V114.79L1356.78 95.1924H1356.93V95.0967L1387.79 75.499H1387.94V75.4023L1418.81 55.8057H1418.96V55.709L1449.82 36.1123H1449.97V36.0156L1480.83 16.4189H1480.99V16.3223L1512.72 -3.83008L1511.27 -4.21777L1480.99 15.0146V14.9189H1366.06L1390.57 -3.86133L1389.1 -4.18652L1364.17 14.9189H1254.83L1274.73 -3.89062L1273.26 -4.15625L1253.07 14.9189H1148.02L1163.63 -3.91895L1162.14 -4.12891L1146.36 14.9189H1044.46L1055.99 -3.94629L1054.5 -4.10059L1042.88 14.9189H943.184L950.792 -3.97266L949.294 -4.07422L941.646 14.9189H843.361L847.144 -3.99902L845.645 -4.0498L841.851 14.9189H744.25V-4.02344H742.75V14.9189H645.148L641.354 -4.0498L639.855 -3.99902L643.638 14.9189H545.351L537.703 -4.07422L536.207 -3.97266L543.814 14.9189H444.122L432.5 -4.10059L431.007 -3.94629L442.536 14.9189H340.632L324.856 -4.12891L323.371 -3.91895L338.973 14.9189H233.923L213.741 -4.15625L212.264 -3.89062L232.166 14.9189H122.829L97.896 -4.18652L96.4312 -3.86133L120.939 14.9189H6.01416V15.0166L-24.2769 -4.21777L-25.7261 -3.83008L6.01416 16.3252V16.4189H6.16357L37.0278 36.0176V36.1123H37.1772L68.0425 55.7119V55.8057H68.1909L99.0571 75.4053V75.499H99.2046L130.071 95.0986V95.1924H130.219L161.084 114.792V114.886H161.233L192.098 134.485V134.579H192.248L223.113 154.179V154.272H223.261L254.126 173.872V173.966H254.276L285.141 193.565V193.659H285.29L316.155 213.259V213.353H316.304L347.168 232.951V233.046H347.318L378.183 252.646V252.739H378.333L408.471 271.877L409.196 271.683V272.433H1077.8V271.683ZM8.22314 16.4189H122.897L146.639 34.6123H37.0278V34.71L8.22314 16.4189ZM124.786 16.4189H233.752L253.001 34.6123H148.528L124.786 16.4189ZM235.51 16.4189H340.215L355.284 34.6123H254.759L235.51 16.4189ZM341.875 16.4189H443.452L454.569 34.6123H356.943L341.875 16.4189ZM445.039 16.4189H544.418L551.745 34.6123H456.156L445.039 16.4189ZM545.956 16.4189H643.938L647.577 34.6123H553.282L545.956 16.4189ZM645.448 16.4189H742.75V34.6123H649.086L645.448 16.4189ZM744.25 16.4189H841.551L837.913 34.6123H744.25V16.4189ZM843.061 16.4189H941.042L933.715 34.6123H839.422L843.061 16.4189ZM942.58 16.4189H1041.96L1030.84 34.6123H935.253L942.58 16.4189ZM1043.55 16.4189H1145.12L1130.05 34.6123H1032.43L1043.55 16.4189ZM1146.78 16.4189H1251.49L1232.24 34.6123H1131.71L1146.78 16.4189ZM1253.24 16.4189H1362.21L1338.47 34.6123H1234L1253.24 16.4189ZM1449.97 34.6123H1340.36L1364.1 16.4189H1478.77L1449.97 34.708V34.6123ZM39.2378 36.1123H148.596L172.338 54.3057H68.0425V54.4033L39.2378 36.1123ZM150.485 36.1123H254.589L273.838 54.3057H174.227L150.485 36.1123ZM256.346 36.1123H356.527L371.595 54.3057H275.595L256.346 36.1123ZM358.186 36.1123H455.486L466.603 54.3057H373.254L358.186 36.1123ZM457.073 36.1123H552.349L559.675 54.3057H468.19L457.073 36.1123ZM553.886 36.1123H647.876L651.515 54.3057H561.212L553.886 36.1123ZM649.386 36.1123H742.75V54.3057H653.025L649.386 36.1123ZM744.25 36.1123H837.613L833.974 54.3057H744.25V36.1123ZM839.123 36.1123H933.111L925.785 54.3057H835.484L839.123 36.1123ZM934.649 36.1123H1029.93L1018.81 54.3057H927.323L934.649 36.1123ZM1031.51 36.1123H1128.81L1113.74 54.3057H1020.4L1031.51 36.1123ZM1130.47 36.1123H1230.65L1211.4 54.3057H1115.4L1130.47 36.1123ZM1232.41 36.1123H1336.51L1312.77 54.3057H1213.16L1232.41 36.1123ZM1418.96 54.3057H1314.66L1338.4 36.1123H1447.76L1418.96 54.4004V54.3057ZM70.2515 55.8057H174.295L198.038 73.999H99.0571V74.0967L70.2515 55.8057ZM176.184 55.8057H275.425L294.674 73.999H199.926L176.184 55.8057ZM277.183 55.8057H372.838L387.907 73.999H296.432L277.183 55.8057ZM374.498 55.8057H467.52L478.637 73.999H389.566L374.498 55.8057ZM469.107 55.8057H560.28L567.606 73.999H480.224L469.107 55.8057ZM561.817 55.8057H651.815L655.454 73.999H569.143L561.817 55.8057ZM653.325 55.8057H742.75V73.999H656.963L653.325 55.8057ZM744.25 55.8057H833.674L830.036 73.999H744.25V55.8057ZM835.184 55.8057H925.18L917.854 73.999H831.545L835.184 55.8057ZM926.718 55.8057H1017.89L1006.77 73.999H919.392L926.718 55.8057ZM1019.48 55.8057H1112.5L1097.43 73.999H1008.36L1019.48 55.8057ZM1114.16 55.8057H1209.81L1190.56 73.999H1099.09L1114.16 55.8057ZM1211.57 55.8057H1310.81L1287.07 73.999H1192.32L1211.57 55.8057ZM1387.94 73.999H1288.96L1312.7 55.8057H1416.75L1387.94 74.0938V73.999ZM101.266 75.499H199.995L223.737 93.6924H130.071V93.79L101.266 75.499ZM201.883 75.499H296.262L315.511 93.6924H225.625L201.883 75.499ZM298.019 75.499H389.15L404.218 93.6924H317.268L298.019 75.499ZM390.809 75.499H479.554L490.671 93.6924H405.877L390.809 75.499ZM481.141 75.499H568.21L575.537 93.6924H492.258L481.141 75.499ZM569.748 75.499H655.753L659.392 93.6924H577.074L569.748 75.499ZM657.263 75.499H742.75V93.6924H660.902L657.263 75.499ZM744.25 75.499H829.736L826.097 93.6924H744.25V75.499ZM831.246 75.499H917.25L909.923 93.6924H827.607L831.246 75.499ZM918.788 75.499H1005.86L994.741 93.6924H911.461L918.788 75.499ZM1007.44 75.499H1096.19L1081.12 93.6924H996.328L1007.44 75.499ZM1097.85 75.499H1188.98L1169.73 93.6924H1082.78L1097.85 75.499ZM1190.73 75.499H1285.12L1261.37 93.6924H1171.49L1190.73 75.499ZM1356.93 93.6924H1263.26L1287 75.499H1385.73L1356.93 93.7871V93.6924ZM132.28 95.1924H225.694L249.436 113.386H161.084V113.483L132.28 95.1924ZM227.583 95.1924H317.098L336.347 113.386H251.325L227.583 95.1924ZM318.856 95.1924H405.461L420.53 113.386H338.105L318.856 95.1924ZM407.12 95.1924H491.588L502.706 113.386H422.188L407.12 95.1924ZM493.175 95.1924H576.141L583.467 113.386H504.292L493.175 95.1924ZM577.678 95.1924H659.692L663.331 113.386H585.004L577.678 95.1924ZM661.202 95.1924H742.75V113.386H664.84L661.202 95.1924ZM744.25 95.1924H825.797L822.159 113.386H744.25V95.1924ZM827.307 95.1924H909.319L901.993 113.386H823.668L827.307 95.1924ZM910.857 95.1924H993.824L982.707 113.386H903.531L910.857 95.1924ZM995.411 95.1924H1079.88L1064.81 113.386H984.293L995.411 95.1924ZM1081.54 95.1924H1168.14L1148.89 113.386H1066.47L1081.54 95.1924ZM1169.9 95.1924H1259.42L1235.67 113.386H1150.65L1169.9 95.1924ZM1325.92 113.386H1237.56L1261.3 95.1924H1354.72L1325.92 113.481V113.386ZM163.294 114.886H251.393L275.135 133.079H192.098V133.176L163.294 114.886ZM253.282 114.886H337.935L357.184 133.079H277.024L253.282 114.886ZM339.692 114.886H421.772L436.84 133.079H358.941L339.692 114.886ZM423.431 114.886H503.623L514.74 133.079H438.5L423.431 114.886ZM505.209 114.886H584.072L591.398 133.079H516.327L505.209 114.886ZM585.609 114.886H663.63L667.269 133.079H592.935L585.609 114.886ZM665.14 114.886H742.75V133.079H668.779L665.14 114.886ZM744.25 114.886H821.859L818.22 133.079H744.25V114.886ZM823.369 114.886H901.388L894.062 133.079H819.73L823.369 114.886ZM902.926 114.886H981.79L970.672 133.079H895.6L902.926 114.886ZM983.376 114.886H1063.57L1048.5 133.079H972.259L983.376 114.886ZM1065.23 114.886H1147.31L1128.06 133.079H1050.16L1065.23 114.886ZM1149.06 114.886H1233.72L1209.98 133.079H1129.81L1149.06 114.886ZM1294.9 133.079H1211.86L1235.6 114.886H1323.7L1294.9 133.175V133.079ZM194.308 134.579H277.092L300.834 152.772H223.113V152.87L194.308 134.579ZM278.981 134.579H358.771L378.02 152.772H302.723L278.981 134.579ZM360.529 134.579H438.083L453.152 152.772H379.778L360.529 134.579ZM439.742 134.579H515.657L526.774 152.772H454.81L439.742 134.579ZM517.243 134.579H592.002L599.329 152.772H528.36L517.243 134.579ZM593.54 134.579H667.569L671.208 152.772H600.866L593.54 134.579ZM669.079 134.579H742.75V152.772H672.717L669.079 134.579ZM744.25 134.579H817.92L814.282 152.772H744.25V134.579ZM819.43 134.579H893.458L886.131 152.772H815.792L819.43 134.579ZM894.996 134.579H969.756L958.639 152.772H887.669L894.996 134.579ZM971.342 134.579H1047.26L1032.19 152.772H960.225L971.342 134.579ZM1048.91 134.579H1126.47L1107.22 152.772H1033.85L1048.91 134.579ZM1128.23 134.579H1208.02L1184.28 152.772H1108.98L1128.23 134.579ZM1263.89 152.772H1186.16L1209.91 134.579H1292.69L1263.89 152.867V152.772ZM225.323 154.272H302.792L326.535 172.466H254.126V172.562L225.323 154.272ZM304.68 154.272H379.608L398.857 172.466H328.422L304.68 154.272ZM381.365 154.272H454.394L469.462 172.466H400.614L381.365 154.272ZM456.053 154.272H527.69L538.807 172.466H471.122L456.053 154.272ZM529.277 154.272H599.933L607.259 172.466H540.394L529.277 154.272ZM601.47 154.272H671.507L675.146 172.466H608.796L601.47 154.272ZM673.017 154.272H742.75V172.466H676.656L673.017 154.272ZM744.25 154.272H813.982L810.343 172.466H744.25V154.272ZM815.492 154.272H885.527L878.201 172.466H811.853L815.492 154.272ZM887.065 154.272H957.722L946.605 172.466H879.739L887.065 154.272ZM959.309 154.272H1030.94L1015.88 172.466H948.192L959.309 154.272ZM1032.6 154.272H1105.63L1086.38 172.466H1017.53L1032.6 154.272ZM1107.39 154.272H1182.32L1158.58 172.466H1088.14L1107.39 154.272ZM1232.87 172.466H1160.46L1184.21 154.272H1261.67L1232.87 172.562V172.466ZM256.336 173.966H328.492L352.234 192.159H285.141V192.257L256.336 173.966ZM330.379 173.966H400.444L419.693 192.159H354.122L330.379 173.966ZM402.202 173.966H470.706L485.774 192.159H421.451L402.202 173.966ZM472.364 173.966H539.724L550.841 192.159H487.432L472.364 173.966ZM541.31 173.966H607.864L615.191 192.159H552.427L541.31 173.966ZM609.401 173.966H675.446L679.084 192.159H616.727L609.401 173.966ZM676.956 173.966H742.75V192.159H680.594L676.956 173.966ZM744.25 173.966H810.043L806.405 192.159H744.25V173.966ZM811.553 173.966H877.596L870.27 192.159H807.915L811.553 173.966ZM879.134 173.966H945.689L934.572 192.159H871.807L879.134 173.966ZM947.275 173.966H1014.63L999.565 192.159H936.158L947.275 173.966ZM1016.29 173.966H1084.8L1065.55 192.159H1001.22L1016.29 173.966ZM1086.55 173.966H1156.62L1132.88 192.159H1067.3L1086.55 173.966ZM1201.86 192.159H1134.77L1158.51 173.966H1230.66L1201.86 192.255V192.159ZM287.351 193.659H354.192L377.934 211.853H316.155V211.949L287.351 193.659ZM356.079 193.659H421.281L440.53 211.853H379.821L356.079 193.659ZM423.038 193.659H487.016L502.084 211.853H442.287L423.038 193.659ZM488.675 193.659H551.757L562.875 211.853H503.744L488.675 193.659ZM553.344 193.659H615.794L623.122 211.853H564.461L553.344 193.659ZM617.332 193.659H679.384L683.023 211.853H624.658L617.332 193.659ZM680.894 193.659H742.75V211.853H684.533L680.894 193.659ZM744.25 193.659H806.105L802.466 211.853H744.25V193.659ZM807.615 193.659H869.666L862.339 211.853H803.976L807.615 193.659ZM871.204 193.659H933.655L922.538 211.853H863.876L871.204 193.659ZM935.242 193.659H998.322L983.253 211.853H924.125L935.242 193.659ZM999.981 193.659H1063.96L1044.71 211.853H984.913L999.981 193.659ZM1065.72 193.659H1130.92L1107.18 211.853H1046.47L1065.72 193.659ZM1170.84 211.853H1109.06L1132.81 193.659H1199.65L1170.84 211.948V211.853ZM318.365 213.353H379.891L403.633 231.546H347.168V231.643L318.365 213.353ZM381.778 213.353H442.117L461.366 231.546H405.52L381.778 213.353ZM443.875 213.353H503.328L518.396 231.546H463.124L443.875 213.353ZM504.986 213.353H563.792L574.909 231.546H520.054L504.986 213.353ZM565.377 213.353H623.725L631.052 231.546H576.495L565.377 213.353ZM625.262 213.353H683.323L686.961 231.546H632.589L625.262 213.353ZM684.833 213.353H742.75V231.546H688.47L684.833 213.353ZM744.25 213.353H802.167L798.529 231.546H744.25V213.353ZM803.676 213.353H861.735L854.409 231.546H800.038L803.676 213.353ZM863.273 213.353H921.622L910.504 231.546H855.946L863.273 213.353ZM923.208 213.353H982.011L966.943 231.546H912.09L923.208 213.353ZM983.669 213.353H1043.12L1023.87 231.546H968.601L983.669 213.353ZM1044.88 213.353H1105.22L1081.48 231.546H1025.63L1044.88 213.353ZM1139.83 231.546H1083.37L1107.11 213.353H1168.63L1139.83 231.643V231.546ZM349.379 233.046H405.591L429.333 251.239H378.183V251.336L349.379 233.046ZM407.478 233.046H462.954L482.203 251.239H431.22L407.478 233.046ZM464.71 233.046H519.638L534.708 251.239H483.96L464.71 233.046ZM521.297 233.046H575.825L586.942 251.239H536.366L521.297 233.046ZM577.412 233.046H631.656L638.983 251.239H588.529L577.412 233.046ZM633.193 233.046H687.261L690.9 251.239H640.52L633.193 233.046ZM688.771 233.046H742.75V251.239H692.409L688.771 233.046ZM744.25 233.046H798.228L794.59 251.239H744.25V233.046ZM799.738 233.046H853.804L846.478 251.239H796.099L799.738 233.046ZM855.342 233.046H909.587L898.47 251.239H848.015L855.342 233.046ZM911.174 233.046H965.7L950.631 251.239H900.057L911.174 233.046ZM967.359 233.046H1022.29L1003.04 251.239H952.29L967.359 233.046ZM1024.04 233.046H1079.52L1055.78 251.239H1004.79L1024.04 233.046ZM1108.82 251.239H1057.67L1081.41 233.046H1137.62L1108.82 251.335V251.239ZM380.393 252.739H431.291L455.033 270.933H409.196V271.028L380.393 252.739ZM456.919 270.933L433.177 252.739H483.79L503.04 270.933H456.919ZM504.796 270.933L485.547 252.739H535.95L551.018 270.933H504.796ZM552.677 270.933L537.608 252.739H587.859L598.975 270.933H552.677ZM600.562 270.933L589.445 252.739H639.586L646.914 270.933H600.562ZM648.451 270.933L641.124 252.739H691.2L694.837 270.933H648.451ZM696.347 270.933L692.708 252.739H742.75V270.933H696.347ZM744.25 270.933V252.739H794.291L790.652 270.933H744.25ZM792.162 270.933L795.799 252.739H845.874L838.547 270.933H792.162ZM840.084 270.933L847.412 252.739H897.554L886.437 270.933H840.084ZM888.024 270.933L899.14 252.739H949.389L934.32 270.933H888.024ZM935.979 270.933L951.047 252.739H1001.45L982.201 270.933H935.979ZM983.958 270.933L1003.21 252.739H1053.82L1030.08 270.933H983.958ZM1077.8 270.933H1031.97L1055.71 252.739H1106.6L1077.8 271.029V270.933Z" fill="url(#paint1_linear_5_22317)" fill-opacity="0.5"/>
</g>
<defs>
<filter id="filter0_f_5_22317" x="276.9" y="-176.1" width="943.2" height="659.2" filterUnits="userSpaceOnUse" color-interpolation-filters="sRGB">
<feFlood flood-opacity="0" result="BackgroundImageFix"/>
<feBlend mode="normal" in="SourceGraphic" in2="BackgroundImageFix" result="shape"/>
<feGaussianBlur stdDeviation="154.05" result="effect1_foregroundBlur_5_22317"/>
</filter>
<linearGradient id="paint0_linear_5_22317" x1="743.499" y1="193.23" x2="742.467" y2="76.0314" gradientUnits="userSpaceOnUse">
<stop stop-color="#6C43F4" stop-opacity="0"/>
<stop offset="0.525" stop-color="#8167F8" stop-opacity="0.15"/>
<stop offset="1" stop-color="#9388FB" stop-opacity="0"/>
</linearGradient>
<linearGradient id="paint1_linear_5_22317" x1="1208.65" y1="98.0518" x2="235.84" y2="89.0563" gradientUnits="userSpaceOnUse">
<stop stop-color="#B088FB" stop-opacity="0.05"/>
<stop offset="1" stop-color="#B088FB" stop-opacity="0.1"/>
</linearGradient>
<clipPath id="clip0_5_22317">
<rect width="1440" height="723" fill="white"/>
</clipPath>
</defs>
</svg>
