<svg width="20" height="20" viewBox="0 0 20 20" fill="none" xmlns="http://www.w3.org/2000/svg">
<path d="M6.53948 10.1971C4.16309 8.42045 2.46958 6.46615 1.54489 5.36747C1.25864 5.02737 1.16485 4.77847 1.10846 4.34006C0.915351 2.83885 0.818798 2.08824 1.25899 1.60369C1.69917 1.11914 2.47761 1.11914 4.03447 1.11914H15.0465C16.6034 1.11914 17.3818 1.11914 17.822 1.60369C18.2622 2.08824 18.1657 2.83885 17.9725 4.34006C17.9162 4.77849 17.8224 5.02738 17.5361 5.36747C16.6101 6.46755 14.9132 8.42532 12.532 10.2043C12.3166 10.3652 12.1746 10.6275 12.1482 10.9184C11.9123 13.526 11.6948 14.9543 11.5594 15.6768C11.3409 16.8433 9.68677 17.5451 8.80137 18.1714C8.27427 18.5441 7.63467 18.1003 7.56637 17.5234C7.43616 16.4235 7.19091 14.1892 6.9232 10.9184C6.89915 10.6248 6.75664 10.3595 6.53948 10.1971Z" stroke="#F8F8F8" stroke-width="1.90993" stroke-linecap="round" stroke-linejoin="round"/>
</svg>
