<svg width="168" height="170" viewBox="0 0 168 170" fill="none" xmlns="http://www.w3.org/2000/svg">
<path d="M71.4113 0.485718C48.8955 0.883424 14.0591 9.44433 4.03184 31.4444C0.529715 39.1282 0.766877 50.4243 1.24096 73.0163C1.38037 79.6567 1.61144 89.3352 3.23444 101.344C6.60591 126.29 8.90104 143.273 17.5875 153.161C39.353 177.939 117.975 177.223 151.549 132.615C169.864 108.281 172.681 73.6649 155.935 45.0565C137.497 13.5591 101.555 -0.0467497 71.4113 0.485718Z" fill="#F4F7FA"/>
<path d="M85.2323 12.9828L68.8676 149.003C68.6223 151.042 70.028 152.871 71.997 153.066L140.158 160.549C144.334 160.809 146.62 158.675 146.877 156.507L164.058 11.8947C164.315 9.73818 162.266 7.78516 158.073 7.78516L89.2917 9.23379C87.3005 9.26712 85.4764 10.9541 85.2323 12.9828Z" fill="url(#paint0_linear_552_6515)"/>
<path d="M82.1642 12.7477L65.7097 149.448C65.4629 151.498 66.8734 153.336 68.8496 153.532L139.514 160.568C141.729 160.788 143.759 159.186 144.018 157.006L161.296 11.6463C161.554 9.47867 159.926 7.7363 157.687 7.77404L86.2395 8.97953C84.241 9.01328 82.4097 10.7089 82.1642 12.7477Z" fill="url(#paint1_linear_552_6515)"/>
<path d="M83.5059 20.2882L68.2546 147.037C68.0242 148.952 69.345 150.665 71.1949 150.845L137.652 157.305C139.711 157.505 141.599 156.009 141.84 153.98L157.807 19.702C158.047 17.6835 156.536 16.0503 154.456 16.0725L87.317 16.7875C85.4479 16.8073 83.7352 18.3825 83.5059 20.2882Z" fill="url(#paint2_linear_552_6515)"/>
<path d="M119.142 12.6554C119.055 13.3832 119.577 13.9657 120.31 13.9565C121.043 13.9473 121.708 13.3486 121.795 12.6194C121.882 11.8902 121.358 11.3078 120.625 11.3185C119.893 11.3293 119.229 11.9278 119.142 12.6554Z" fill="url(#paint3_linear_552_6515)"/>
<path opacity="0.2" d="M94.9955 105.37C108.601 80.2154 128.925 72.6862 135.044 46.7621C138.352 32.7491 136.098 19.3368 132.302 8.20236L157.687 7.77404C159.927 7.7363 161.554 9.47867 161.296 11.6463L144.019 157.006C143.76 159.186 141.73 160.788 139.514 160.568L83.9655 155.037C83.5547 132.498 88.9308 116.582 94.9955 105.37Z" fill="white"/>
<path d="M145.111 28.4453L145.443 30.2378H145.443L138.607 30.254L79.2791 30.3947C77.753 30.3983 76.3492 31.6598 76.1401 33.2126L61.9777 127.865C61.7669 129.432 64.2055 131.823 65.7227 131.94L92.0432 133.963V133.931L131.414 136.952C131.415 136.952 131.416 136.952 131.416 136.952L131.512 136.991C133.193 137.121 134.735 135.901 134.953 134.247C134.953 134.246 134.954 134.254 134.954 134.253L148.217 33.1951C148.432 31.5553 146.802 28.4408 145.111 28.4453Z" fill="url(#paint4_linear_552_6515)"/>
<path d="M133.612 132.276C133.395 133.931 131.853 135.168 130.172 135.039L64.3157 129.982C62.7993 129.866 61.7437 128.502 61.9545 126.935L74.829 31.2759C75.038 29.7234 76.4412 28.4617 77.9665 28.4575L144.194 28.2754C145.885 28.2708 147.083 29.5958 146.868 31.2352L133.612 132.276Z" fill="white"/>
<path opacity="0.4" d="M146.869 31.2349L133.613 132.276C133.395 133.93 131.755 135.161 130.075 135.032L90.521 131.994C88.6419 130.071 87.0945 127.762 85.9904 124.992C85.4483 123.633 85.0512 122.167 84.7874 120.626C84.0532 116.36 84.3376 111.51 85.4086 106.749C86.2321 103.085 87.5229 99.4666 89.176 96.2023C90.4977 93.5925 92.0525 91.2062 93.7885 89.2009C95.0386 87.7576 96.3906 86.3551 97.8167 84.9798C99.5362 83.3202 101.364 81.6998 103.249 80.0947C107.642 76.352 112.346 72.6925 116.701 68.828C126.75 59.9132 134.903 49.9524 132.941 35.7397C132.878 35.2922 132.266 31.8638 131.484 28.3101L144.097 28.2754C145.786 28.2708 147.084 29.5962 146.869 31.2349Z" fill="white"/>
<path d="M122.894 162.649C122.912 162.651 122.93 162.654 122.948 162.657C125.861 163.122 129.513 162.797 131.873 160.858C133.116 159.836 133.958 158.489 134.217 156.893C134.37 155.946 134.454 154.947 134.305 153.995C134.15 152.998 133.765 152.035 133.269 151.161C132.991 150.672 132.675 150.201 132.34 149.751C131.379 148.461 129.108 146.65 130.161 144.822C130.798 143.717 132.265 143.036 133.233 142.262C135.305 140.605 136.792 138.217 136.813 135.49C136.83 133.348 135.486 131.228 133.971 129.787C127.805 123.926 132.348 113.846 123.614 114.638C114.88 115.429 112.985 124.146 116.256 132.283C117.351 135.008 118.684 137.793 119.428 140.64C120.014 142.882 119.186 144.432 117.36 145.757C116.378 146.469 114.943 146.955 114.09 147.795C112.184 149.67 110.657 152.299 111.112 155.051C111.563 157.78 113.89 159.785 116.342 160.822C118.462 161.718 120.626 162.285 122.894 162.649Z" fill="url(#paint5_linear_552_6515)"/>
<g opacity="0.8">
<path d="M123.922 160.306C123.943 160.306 123.964 160.302 123.984 160.295C124.077 160.261 124.125 160.158 124.091 160.065C124.054 159.964 120.435 149.86 123.604 141.762C126.824 133.532 123.222 124.722 123.185 124.634C123.147 124.542 123.042 124.499 122.95 124.537C122.859 124.575 122.816 124.681 122.854 124.772C122.89 124.859 126.436 133.539 123.269 141.631C120.051 149.857 123.716 160.085 123.754 160.188C123.78 160.261 123.849 160.306 123.922 160.306Z" fill="white"/>
</g>
<path d="M121.052 147.47C121.783 146.313 122.62 145.224 123.493 144.24C126.444 140.912 128.516 137.38 129.841 133.119C130.885 129.762 130.863 125.923 131.511 122.457C131.98 119.946 132.83 117.515 133.714 115.124C135.596 110.032 138.42 104.125 143.161 101.067C145.356 99.6512 148.61 99.5115 151.031 100.526C154.167 101.84 156.94 104.399 157.141 107.959C157.417 112.854 153.142 118.34 156.678 122.841C162.092 129.733 159.561 137.39 152.118 141.138C149.692 142.359 146.85 143.491 144.823 145.367C142.79 147.248 144.002 150.458 144.228 152.841C144.44 155.077 144.673 157.675 143.248 159.587C140.844 162.813 135.039 164.218 131.265 164.537C127.613 164.845 123.464 164.442 120.906 161.519C117.053 157.113 118.311 151.809 121.052 147.47Z" fill="url(#paint6_linear_552_6515)"/>
<g opacity="0.8">
<path d="M126.994 161.503C127.067 161.503 127.135 161.459 127.162 161.387C127.28 161.074 139.088 129.913 145.825 117.356C145.872 117.269 145.839 117.16 145.752 117.113C145.665 117.066 145.556 117.099 145.509 117.186C138.76 129.764 126.945 160.946 126.826 161.26C126.791 161.353 126.838 161.456 126.931 161.491C126.951 161.499 126.973 161.503 126.994 161.503Z" fill="white"/>
</g>
<path d="M132.099 165.909C131.313 165.798 130.53 165.669 129.749 165.544C127.569 165.194 124.869 164.515 124.183 162.082C123.988 161.389 124.324 160.153 124.405 159.432C124.487 158.699 124.592 157.966 124.763 157.247C124.998 156.254 125.376 155.32 125.866 154.426C126.715 152.878 127.686 151.712 129.493 151.361C130.81 151.106 132.27 151.046 133.609 151.09C140.909 151.329 141.807 148.697 145.816 143.072C149.825 137.447 176.213 146.542 160.296 156.535C160.296 156.535 157.903 158.091 149.167 157.074C147.569 156.888 145.548 156.764 144.193 157.797C141.804 159.62 144.206 163.483 141.794 164.999C140.387 165.883 138.126 166.143 136.51 166.205C135.034 166.262 133.562 166.116 132.099 165.909Z" fill="url(#paint7_linear_552_6515)"/>
<g opacity="0.8">
<path d="M127.226 162.899C127.282 162.899 127.337 162.873 127.372 162.825C127.418 162.761 132.039 156.479 138.595 154.996C141.16 154.416 143.376 153.118 145.52 151.862C149.134 149.746 152.549 147.746 157.588 148.774C157.685 148.794 157.779 148.731 157.799 148.634C157.819 148.537 157.756 148.442 157.659 148.422C152.486 147.367 148.852 149.495 145.338 151.553C143.218 152.794 141.026 154.078 138.516 154.646C131.826 156.159 127.128 162.55 127.081 162.614C127.023 162.694 127.041 162.806 127.121 162.865C127.153 162.888 127.19 162.899 127.226 162.899Z" fill="white"/>
</g>
<path d="M53.637 29.3785C53.637 40.1792 44.9339 49.5167 34.1649 50.2366C23.3592 50.959 14.5723 42.7364 14.5723 31.8689C14.5723 21.0014 23.3592 11.6585 34.1649 11.0032C44.9339 10.3499 53.637 18.5778 53.637 29.3785Z" fill="url(#paint8_linear_552_6515)"/>
<path d="M55.9476 30.0699C55.9476 40.8706 47.2444 50.2081 36.4754 50.928C25.6697 51.6503 16.8828 43.4279 16.8828 32.5603C16.8828 21.6927 25.6697 12.3499 36.4754 11.6946C47.2444 11.0414 55.9476 19.2692 55.9476 30.0699Z" fill="url(#paint9_linear_552_6515)"/>
<path d="M35.7892 41.9259C34.9423 41.9814 34.1543 41.5873 33.7158 40.8833L26.3527 29.0597C25.6626 27.9517 26.0344 26.4341 27.1827 25.6702C28.3301 24.9068 29.8191 25.1856 30.5083 26.2932L35.6147 34.5007L42.3526 20.7782C42.9572 19.5466 44.41 18.9817 45.5966 19.5159C46.7829 20.0498 47.255 21.4802 46.6511 22.7109L37.944 40.4587C37.5452 41.2713 36.7526 41.8305 35.8742 41.9188C35.8459 41.9216 35.8176 41.9241 35.7892 41.9259Z" fill="white"/>
<path d="M131.656 47.626C132.195 47.6348 132.723 47.2252 132.787 46.7112L134.368 34.0214C134.432 33.5048 134.045 33.0859 133.503 33.0859H122.853C122.325 33.0859 121.847 33.4989 121.785 34.0083C121.723 34.5175 122.06 34.9312 122.588 34.9323L132.214 34.9525L130.758 46.6815C130.694 47.1945 131.118 47.6172 131.656 47.626Z" fill="url(#paint10_linear_552_6515)"/>
<path d="M116.566 84.474L127.035 85.0884C127.568 85.1196 128.051 84.7343 128.114 84.2276L129.672 71.7197C129.735 71.2105 129.313 70.7795 128.779 70.7568C128.244 70.7341 127.722 71.128 127.658 71.6362L126.222 83.2016L116.748 82.6629C116.229 82.6335 115.778 83.0147 115.717 83.5145C115.656 84.0141 116.047 84.4436 116.566 84.474Z" fill="url(#paint11_linear_552_6515)"/>
<path d="M83.3227 46.8373C83.8048 46.8451 84.1992 46.4577 84.2552 45.9714L85.5364 34.8548L94.4462 34.8733C94.9414 34.8744 95.411 34.4748 95.4689 33.9807C95.5268 33.4865 95.1927 33.0859 94.6973 33.0859H84.9476C84.4639 33.0859 84.0268 33.4812 83.9709 33.9687L82.5945 45.9445C82.5387 46.4297 82.8412 46.8295 83.3227 46.8373Z" fill="url(#paint12_linear_552_6515)"/>
<path d="M79.2851 82.2862L88.8774 82.849C89.3648 82.8776 89.8064 82.5077 89.8632 82.0226C89.92 81.5375 89.5287 81.1223 89.041 81.0947L80.2646 80.6009L81.5287 69.6313C81.5843 69.1494 81.2829 68.7418 80.8043 68.7215C80.3263 68.7012 79.9364 69.0743 79.8811 69.5552L78.5234 81.3691C78.4684 81.8477 78.8092 82.2583 79.2851 82.2862Z" fill="url(#paint13_linear_552_6515)"/>
<path d="M118.825 93.3257C118.76 93.8186 118.3 94.1861 117.797 94.1678L82.9509 92.896C82.4909 92.8792 82.1673 92.5005 82.2305 92.03L82.9157 86.9519C82.9788 86.4817 83.3986 86.1634 83.859 86.1762L118.736 87.1448C119.239 87.1588 119.596 87.5144 119.531 88.0069L118.825 93.3257Z" fill="#F4F7FA"/>
<path d="M117.475 103.642C117.41 104.136 116.949 104.557 116.446 104.532L81.6265 102.812C81.1669 102.789 80.847 102.35 80.9103 101.878L81.6009 96.7022C81.6641 96.2313 82.0879 95.8278 82.5478 95.8463L117.389 97.2515C117.892 97.2718 118.247 97.7267 118.182 98.22L117.475 103.642Z" fill="#F4F7FA"/>
<path d="M119.532 87.9858C119.45 87.9592 119.361 87.9446 119.266 87.9419L84.3891 86.974C83.929 86.9607 83.5089 87.2798 83.4463 87.7491L82.7603 92.8271C82.7589 92.8404 82.7576 92.8524 82.7562 92.8657C82.4026 92.766 82.1752 92.4309 82.2284 92.0293L82.9145 86.9513C82.977 86.4819 83.3971 86.1628 83.8573 86.1762L118.735 87.1442C119.229 87.1587 119.584 87.5031 119.532 87.9858Z" fill="#AABBCC"/>
<path d="M118.19 98.1068C118.106 98.0735 118.016 98.0536 117.92 98.0497L83.0802 96.6441C82.6201 96.6256 82.196 97.0298 82.1334 97.5005L81.442 102.677C81.438 102.71 81.4353 102.742 81.4353 102.775C81.0816 102.661 80.8569 102.281 80.9101 101.879L81.6016 96.7027C81.6641 96.232 82.0883 95.8278 82.5483 95.8463L117.388 97.2518C117.854 97.2718 118.192 97.66 118.19 98.1068Z" fill="#AABBCC"/>
<path d="M108.214 112.005C108.317 111.226 107.766 110.508 106.983 110.463L88.9581 109.428C88.2117 109.385 87.5221 110.014 87.4207 110.772L86.6768 116.379C86.5752 117.138 87.0931 117.865 87.8391 117.916L105.855 119.149C106.637 119.202 107.358 118.542 107.461 117.762L108.214 112.005Z" fill="url(#paint14_linear_552_6515)"/>
<path d="M32.7305 70.1113L54.3943 78.0324L48.9047 85.6617L33.8215 74.7266L32.7305 70.1113Z" fill="white"/>
<path d="M48.6229 85.3913L50.273 79.2387C50.339 78.993 50.5255 78.7978 50.7679 78.7208L53.6512 77.8053C53.6544 77.8042 53.6551 77.8039 53.6622 77.8018L53.6847 77.7947C53.693 77.7921 53.7014 77.792 53.7097 77.7904C53.7157 77.7891 53.7223 77.7883 53.7288 77.7871C53.7351 77.7865 53.741 77.7847 53.7473 77.7846C53.8952 77.7614 54.1733 77.7625 54.3952 78.0339C54.2303 78.153 54.0814 78.1468 53.9601 78.0946L51.8979 84.732L48.9057 85.6631C48.8278 85.6874 48.7428 85.6673 48.684 85.6108C48.6251 85.5541 48.6017 85.47 48.6229 85.3913Z" fill="url(#paint15_linear_552_6515)"/>
<path d="M49.1153 85.3894L50.7401 79.4319C50.8062 79.1893 50.9902 78.9964 51.2293 78.9187L54.1844 77.9582C54.2499 77.937 54.3217 77.9539 54.3707 78.0023C54.4197 78.0507 54.4376 78.1223 54.4173 78.188L52.4664 84.4793C52.4174 84.6373 52.2938 84.761 52.1358 84.8102L49.3979 85.6621C49.3198 85.6865 49.2346 85.6663 49.1757 85.6094C49.117 85.5527 49.0938 85.4683 49.1153 85.3894Z" fill="url(#paint16_linear_552_6515)"/>
<path d="M57.1909 83.1246C58.4137 84.2014 56.1766 92.271 49.8266 94.6765C44.8203 96.573 38.8451 94.47 35.9789 90.3068C34.3264 87.9066 32.8296 83.6206 34.6649 81.5363C34.7482 81.4416 35.7852 80.2999 37.264 80.3811C40.6877 80.5691 40.9087 87.0059 44.5801 87.7935C45.443 87.9786 45.753 87.6922 52.9613 84.5491C56.4386 83.0328 56.8987 82.8674 57.1909 83.1246Z" fill="url(#paint17_linear_552_6515)"/>
<path d="M47.8426 86.3345C47.8426 86.3345 47.5362 85.1396 48.2715 84.5882C49.0068 84.0367 49.3132 82.5967 49.4358 83.1175C49.5583 83.6384 49.4358 84.2511 49.4358 84.2511C49.4358 84.2511 52.0706 81.9533 52.04 82.7498C52.0094 83.5464 50.1098 86.2119 48.8843 86.7328C47.6587 87.2536 47.8615 87.3334 47.8426 86.3345Z" fill="url(#paint18_linear_552_6515)"/>
<path d="M56.861 83.2089C56.861 83.2089 56.9019 81.5137 57.7802 81.1256C58.6585 80.7375 59.6593 78.7766 59.598 79.7775C59.5367 80.7783 58.638 81.2481 58.638 81.2481C58.638 81.2481 60.0882 81.7703 59.455 82.5815C58.8219 83.3927 58.107 83.5561 57.3716 83.9238C57.3716 83.9238 57.1725 84.5417 56.667 84.4497C56.1614 84.3577 56.5955 83.4847 56.861 83.2089Z" fill="url(#paint19_linear_552_6515)"/>
<path d="M26.0512 104.259C21.1621 106.601 16.5199 105.902 13.2721 105.414C9.60195 104.862 6.06728 104.33 4.68041 101.587C3.3078 98.8728 4.53436 94.9724 6.70197 92.8511C9.24869 90.3589 11.7894 91.5996 13.5608 89.169C15.3757 86.6788 13.2327 84.6575 14.8604 81.877C16.909 78.3774 21.3092 79.8616 23.452 76.3176C25.2101 73.4101 23.0557 71.0346 24.8238 69.17C27.276 66.584 34.4288 67.967 35.5744 71.0133C36.022 72.2038 35.3433 73.0925 34.842 74.7656C33.2471 80.0883 36.5093 83.1091 36.8088 87.9416C37.2134 94.4698 32.0784 101.371 26.0512 104.259Z" fill="url(#paint20_linear_552_6515)"/>
<path d="M22.736 159.805C22.736 159.805 27.6293 160.425 27.8164 161.537C28.0336 162.828 22.375 161.694 22.375 161.694C22.375 161.694 21.5086 161.409 22.736 159.805Z" fill="url(#paint21_linear_552_6515)"/>
<path d="M23.047 157.16L22.9277 159.892C22.9277 159.892 23.5258 160.65 24.2111 160.102L24.7574 157.16H23.047Z" fill="url(#paint22_linear_552_6515)"/>
<path d="M30.7086 161.131C30.7086 161.131 35.602 161.751 35.7891 162.863C36.0063 164.154 30.3476 163.02 30.3476 163.02C30.3476 163.02 29.4813 162.735 30.7086 161.131Z" fill="url(#paint23_linear_552_6515)"/>
<path d="M31.0197 158.484L30.9004 161.216C30.9004 161.216 31.4985 161.974 32.1838 161.426L32.73 158.484H31.0197Z" fill="url(#paint24_linear_552_6515)"/>
<path d="M37.6192 113.455C37.3618 117.406 36.7287 123.094 35.0202 129.796C34.4056 132.207 33.7876 134.216 32.3965 138.393C30.7354 143.379 28.3931 150.191 25.3402 158.419C24.4548 158.554 23.5695 158.689 22.6842 158.825C20.8515 152.145 21.3781 146.893 23.2599 142.717C24.3745 140.243 25.0302 140.221 26.1775 137.459C27.3966 134.524 27.8947 131.568 27.5866 121.587C27.4992 118.76 27.336 115.003 27.0066 110.559C30.5441 111.524 34.0817 112.489 37.6192 113.455Z" fill="url(#paint25_linear_552_6515)"/>
<path opacity="0.3" d="M37.6206 113.455C37.3632 117.406 36.7301 123.094 35.0216 129.796C34.4071 132.207 33.789 134.216 32.3979 138.393C30.7368 143.379 28.3946 150.191 25.3416 158.419C24.4563 158.554 23.571 158.69 22.6856 158.825C21.1201 152.59 22.2666 149.316 23.6906 147.467C24.5705 146.325 25.6756 145.571 26.4824 143.605C27.4317 141.293 26.7594 140.245 27.2524 137.537C27.917 133.887 29.4949 133.833 30.0522 130.978C30.7094 127.611 28.8456 125.99 27.5879 121.587C26.8881 119.136 26.273 115.464 27.0079 110.559C30.5455 111.524 34.0831 112.489 37.6206 113.455Z" fill="url(#paint26_linear_552_6515)"/>
<path d="M31.4882 112.828C33.7146 115.633 39.9707 124.263 40.152 136.825C40.3212 148.541 35.1076 156.886 33.0175 159.887C32.1467 159.807 31.276 159.728 30.4052 159.649C30.1855 157.168 30.0737 153.443 30.8384 149.03C31.9775 142.456 33.781 141.746 33.5097 137.997C33.1695 133.295 30.1969 132.54 25.5679 123.999C23.0734 119.396 20.0938 113.898 22.0301 111.863C22.397 111.477 24.1941 109.898 31.4882 112.828Z" fill="url(#paint27_linear_552_6515)"/>
<path d="M33.752 78.4207C36.8882 78.9914 38.7674 81.1419 39.2853 81.7521C39.929 82.5107 41.8329 84.9852 41.8693 91.3157C41.9042 97.3849 40.1715 98.0871 39.6463 103.845C38.8716 112.337 42.138 116.323 39.8605 118.238C37.922 119.867 35.5644 116.972 29.0325 117.286C23.6412 117.544 22.6031 119.643 17.9685 119.118C17.2602 119.038 11.0723 118.273 10.117 115.036C9.45336 112.787 11.8955 111.311 15.2431 105.867C18.4479 100.654 20.0241 95.803 20.8071 93.3928C23.1692 86.1225 22.189 84.1349 24.8587 81.4767C25.1916 81.1451 28.9263 77.5426 33.752 78.4207Z" fill="url(#paint28_linear_552_6515)"/>
<path d="M30.5841 72.6523C30.5841 72.6523 31.2228 77.089 28.7881 79.4708C28.6152 79.64 28.6958 79.9314 28.9325 79.9812C30.0634 80.2189 32.6937 80.602 35.2446 79.7451C35.4666 79.6705 35.5166 79.3768 35.3341 79.2303C34.8007 78.8021 33.9029 77.9839 33.4244 77.0011C32.7154 75.5446 32.589 73.0594 32.589 73.0594L30.5841 72.6523Z" fill="url(#paint29_linear_552_6515)"/>
<g opacity="0.3">
<path d="M15.2432 105.867C18.4479 100.655 20.0241 95.8033 20.8072 93.3931C23.1692 86.1228 22.189 84.1352 24.8587 81.477C25.0297 81.3067 26.1002 80.2736 27.7537 79.4277C27.3156 80.8549 27.0533 82.5339 27.3003 84.3517C28.1426 90.549 34.1255 92.7038 33.3649 96.5533C32.6698 100.072 27.3436 99.926 26.5783 103.701C25.7905 107.586 30.9468 110.138 29.8994 112.87C28.8885 115.507 23.705 114.122 18.5642 117.274C17.7814 117.754 17.0745 118.294 16.4351 118.874C14.3313 118.454 10.8177 117.411 10.117 115.036C9.4534 112.787 11.8955 111.311 15.2432 105.867Z" fill="url(#paint30_linear_552_6515)"/>
</g>
<path d="M30.5089 74.2368C30.5089 74.2368 31.6085 75.7461 33.333 75.1171C34.8771 74.554 33.9555 70.566 32.7307 70.111C32.3222 69.9593 31.572 70.0264 31.0705 70.3393C30.7178 70.5593 29.7761 71.7293 30.3159 73.0404C29.9258 72.9274 29.5825 73.03 29.4965 73.2232C29.3873 73.4682 29.7178 73.8019 29.7924 73.8775C30.0518 74.1396 30.3646 74.2128 30.5089 74.2368Z" fill="url(#paint31_linear_552_6515)"/>
<path d="M49.6555 86.4152C49.0745 86.1963 48.4934 85.9773 47.9125 85.7583C47.5704 86.3805 45.2886 90.3845 41.0175 90.9927C36.9902 91.5663 33.2081 88.8339 31.4512 86.1554C29.7849 83.6152 30.1234 81.403 28.5632 80.921C26.9935 80.4361 25.0478 82.1801 24.123 83.3758C21.9358 86.2037 22.0127 90.4222 23.3649 93.4475C25.5633 98.3659 31.4695 100.884 36.5043 100.371C44.3042 99.5773 47.9182 91.7237 48.5272 90.3061C49.1869 88.7707 49.4967 87.3948 49.6555 86.4152Z" fill="url(#paint32_linear_552_6515)"/>
<path d="M21.7393 67.5473C21.5138 67.5512 21.3145 67.3712 21.3145 67.1454V61.5847C21.3145 61.3589 21.4974 61.1758 21.7229 61.1758H26.1572C26.3771 61.1758 26.5551 61.3562 26.5551 61.5789C26.5551 61.8016 26.3936 61.9824 26.1737 61.9829L22.1633 61.9918V67.1324C22.1632 67.3578 21.9645 67.5435 21.7393 67.5473Z" fill="url(#paint33_linear_552_6515)"/>
<path d="M26.1572 83.8558L21.7229 84.1296C21.4974 84.1436 21.3145 83.9718 21.3145 83.746V78.1852C21.3145 77.9594 21.5138 77.7683 21.7393 77.7582C21.9645 77.7482 22.1632 77.9228 22.1632 78.1481V83.2888L26.1736 83.0488C26.3935 83.0357 26.5632 83.2055 26.5632 83.4281C26.5632 83.6508 26.377 83.8422 26.1572 83.8558Z" fill="url(#paint34_linear_552_6515)"/>
<path d="M41.9575 67.2009C41.7559 67.2043 41.6098 67.0341 41.6098 66.8206V61.9491L37.8981 61.9572C37.6917 61.9576 37.5156 61.7829 37.5156 61.5669C37.5156 61.3509 37.6742 61.1758 37.8805 61.1758H41.9398C42.1413 61.1758 42.3043 61.3485 42.3043 61.5616V66.8087C42.3043 67.0219 42.1588 67.1975 41.9575 67.2009Z" fill="url(#paint35_linear_552_6515)"/>
<path d="M41.9388 82.8806L37.8795 83.1313C37.6732 83.1441 37.5059 82.9793 37.5059 82.7633C37.5059 82.5474 37.6907 82.3625 37.897 82.3502L41.6088 82.1304V77.2589C41.6088 77.0454 41.7548 76.8648 41.9564 76.8558C42.1578 76.8468 42.3033 77.0121 42.3033 77.2252V82.4724C42.3033 82.6854 42.1402 82.8682 41.9388 82.8806Z" fill="url(#paint36_linear_552_6515)"/>
<path d="M103.498 79.616C91.9728 79.616 83.4994 69.9689 84.5884 58.3295C85.6554 46.9247 95.5439 37.8145 106.651 37.8145C117.758 37.8145 126.272 46.9247 125.618 58.3295C124.951 69.9689 115.022 79.616 103.498 79.616Z" fill="#AABBCC"/>
<path d="M124.813 58.3281C124.164 69.5244 114.643 78.7647 103.561 78.7647C92.4788 78.7647 84.3528 69.5244 85.3923 58.3281C86.4117 47.3489 95.8947 38.6035 106.591 38.6035C117.287 38.6035 125.45 47.3489 124.813 58.3281Z" fill="#EAEDF3"/>
<mask id="mask0_552_6515" style="mask-type:luminance" maskUnits="userSpaceOnUse" x="85" y="38" width="40" height="41">
<path d="M124.813 58.3281C124.164 69.5244 114.643 78.7647 103.561 78.7647C92.4788 78.7647 84.3528 69.5244 85.3923 58.3281C86.4117 47.3489 95.8947 38.6035 106.591 38.6035C117.287 38.6035 125.45 47.3489 124.813 58.3281Z" fill="white"/>
</mask>
<g mask="url(#mask0_552_6515)">
<path d="M104.041 44.0473C100.287 43.9385 96.5522 45.8929 94.7306 48.6221C92.5235 51.9291 94.9531 53.588 93.2298 59.0191C91.6277 64.0682 88.8206 64.9357 88.9749 68.2801C89.1449 71.9657 92.6991 74.3157 94.1071 75.2466C100.466 79.4512 110.955 79.2749 116.619 73.8551C117.09 73.4049 120.963 69.6988 120.19 66.3107C119.503 63.2957 115.759 63.2746 115.191 60.1583C114.703 57.4871 117.305 56.6271 117.312 52.7837C117.314 52.0349 117.321 48.5034 114.62 46.8786C112.825 45.7988 110.75 46.1079 109.986 46.2588C109.131 45.5828 107.039 44.1342 104.041 44.0473Z" fill="url(#paint37_linear_552_6515)"/>
<path d="M82.2988 72.0403C82.2988 72.0403 102.637 61.2461 125.838 72.0051C125.838 72.0051 122.226 81.3871 103.742 82.0332C84.6091 82.7019 82.2988 72.0403 82.2988 72.0403Z" fill="url(#paint38_linear_552_6515)"/>
<path d="M102.137 58.0273L101.014 63.1261C100.629 64.8766 99.2421 66.344 97.4273 66.9134L91.3457 68.8214C91.3457 68.8214 102.281 74.0588 116.977 68.8239L110.616 66.6559C108.817 65.9926 107.68 64.3287 107.737 62.4439L107.869 58.0946L102.137 58.0273Z" fill="url(#paint39_linear_552_6515)"/>
<path d="M111.184 53.6685C110.884 57.9342 107.825 62.532 104.433 62.5058C101.021 62.4794 98.6192 57.7881 98.9694 53.4759C99.3169 49.1964 102.246 46.9288 105.608 47.0017C108.949 47.0742 111.482 49.4348 111.184 53.6685Z" fill="url(#paint40_linear_552_6515)"/>
<path d="M108.082 49.7823C106.256 49.8363 103.467 50.1977 101.406 52.0579C97.9289 55.1958 99.0511 60.2979 97.5844 60.5868C96.277 60.8444 94.5939 57.1935 94.9615 53.2361C95.2674 49.9431 96.7846 46.1095 99.9601 45.2129C101.822 44.6872 102.284 45.6198 108.103 46.2901C111.494 46.6807 110.051 48.0929 110.782 48.6458C114.035 51.1062 113.058 59.046 111.195 59.128C110.311 59.1669 109.244 57.065 108.082 49.7823Z" fill="url(#paint41_linear_552_6515)"/>
</g>
<defs>
<linearGradient id="paint0_linear_552_6515" x1="117.307" y1="80.6601" x2="144.169" y2="83.5904" gradientUnits="userSpaceOnUse">
<stop stop-color="#444B8C"/>
<stop offset="0.9964" stop-color="#26264F"/>
</linearGradient>
<linearGradient id="paint1_linear_552_6515" x1="93.6385" y1="12.9485" x2="160.06" y2="239.075" gradientUnits="userSpaceOnUse">
<stop stop-color="#444B8C"/>
<stop offset="0.9964" stop-color="#26264F"/>
</linearGradient>
<linearGradient id="paint2_linear_552_6515" x1="68.2285" y1="86.6977" x2="157.832" y2="86.6977" gradientUnits="userSpaceOnUse">
<stop stop-color="#AA80F9"/>
<stop offset="0.9964" stop-color="#6165D7"/>
</linearGradient>
<linearGradient id="paint3_linear_552_6515" x1="118.528" y1="7.3805" x2="196.591" y2="218.802" gradientUnits="userSpaceOnUse">
<stop stop-color="#FFC444"/>
<stop offset="0.9964" stop-color="#F36F56"/>
</linearGradient>
<linearGradient id="paint4_linear_552_6515" x1="61.9649" y1="82.7231" x2="148.236" y2="82.7231" gradientUnits="userSpaceOnUse">
<stop stop-color="#311944"/>
<stop offset="1" stop-color="#893976"/>
</linearGradient>
<linearGradient id="paint5_linear_552_6515" x1="136.813" y1="138.72" x2="111.031" y2="138.72" gradientUnits="userSpaceOnUse">
<stop stop-color="#FF9085"/>
<stop offset="1" stop-color="#FB6FBB"/>
</linearGradient>
<linearGradient id="paint6_linear_552_6515" x1="159.578" y1="132.246" x2="118.479" y2="132.246" gradientUnits="userSpaceOnUse">
<stop stop-color="#FFC444"/>
<stop offset="0.9964" stop-color="#F36F56"/>
</linearGradient>
<linearGradient id="paint7_linear_552_6515" x1="165.352" y1="153.782" x2="124.123" y2="153.782" gradientUnits="userSpaceOnUse">
<stop offset="0.0036" stop-color="#E38DDD"/>
<stop offset="1" stop-color="#9571F6"/>
</linearGradient>
<linearGradient id="paint8_linear_552_6515" x1="14.5722" y1="30.6238" x2="53.637" y2="30.6238" gradientUnits="userSpaceOnUse">
<stop stop-color="#444B8C"/>
<stop offset="0.9964" stop-color="#26264F"/>
</linearGradient>
<linearGradient id="paint9_linear_552_6515" x1="16.8828" y1="31.3152" x2="55.9475" y2="31.3152" gradientUnits="userSpaceOnUse">
<stop stop-color="#AA80F9"/>
<stop offset="0.9964" stop-color="#6165D7"/>
</linearGradient>
<linearGradient id="paint10_linear_552_6515" x1="125.241" y1="43.1252" x2="133.056" y2="32.526" gradientUnits="userSpaceOnUse">
<stop stop-color="#AA80F9"/>
<stop offset="0.9964" stop-color="#6165D7"/>
</linearGradient>
<linearGradient id="paint11_linear_552_6515" x1="121.414" y1="75.8844" x2="127.933" y2="84.726" gradientUnits="userSpaceOnUse">
<stop stop-color="#AA80F9"/>
<stop offset="0.9964" stop-color="#6165D7"/>
</linearGradient>
<linearGradient id="paint12_linear_552_6515" x1="90.4082" y1="41.8353" x2="84.1976" y2="33.4127" gradientUnits="userSpaceOnUse">
<stop stop-color="#AA80F9"/>
<stop offset="0.9964" stop-color="#6165D7"/>
</linearGradient>
<linearGradient id="paint13_linear_552_6515" x1="86.8901" y1="73.0423" x2="79.7162" y2="82.7713" gradientUnits="userSpaceOnUse">
<stop stop-color="#AA80F9"/>
<stop offset="0.9964" stop-color="#6165D7"/>
</linearGradient>
<linearGradient id="paint14_linear_552_6515" x1="80.1241" y1="90.1594" x2="131.712" y2="161.756" gradientUnits="userSpaceOnUse">
<stop stop-color="#AA80F9"/>
<stop offset="0.9964" stop-color="#6165D7"/>
</linearGradient>
<linearGradient id="paint15_linear_552_6515" x1="49.3542" y1="75.9536" x2="50.1712" y2="78.1595" gradientUnits="userSpaceOnUse">
<stop stop-color="#444B8C"/>
<stop offset="0.9964" stop-color="#26264F"/>
</linearGradient>
<linearGradient id="paint16_linear_552_6515" x1="54.4257" y1="81.8107" x2="49.1074" y2="81.8107" gradientUnits="userSpaceOnUse">
<stop stop-color="#444B8C"/>
<stop offset="0.9964" stop-color="#26264F"/>
</linearGradient>
<linearGradient id="paint17_linear_552_6515" x1="57.5115" y1="87.8781" x2="33.8223" y2="87.8781" gradientUnits="userSpaceOnUse">
<stop stop-color="#FFC444"/>
<stop offset="0.9964" stop-color="#F36F56"/>
</linearGradient>
<linearGradient id="paint18_linear_552_6515" x1="52.0403" y1="84.846" x2="47.7793" y2="84.846" gradientUnits="userSpaceOnUse">
<stop stop-color="#311944"/>
<stop offset="1" stop-color="#A03976"/>
</linearGradient>
<linearGradient id="paint19_linear_552_6515" x1="59.6151" y1="81.9776" x2="56.4336" y2="81.9776" gradientUnits="userSpaceOnUse">
<stop stop-color="#311944"/>
<stop offset="1" stop-color="#A03976"/>
</linearGradient>
<linearGradient id="paint20_linear_552_6515" x1="30.2592" y1="83.1396" x2="11.5597" y2="98.0847" gradientUnits="userSpaceOnUse">
<stop stop-color="#311944"/>
<stop offset="1" stop-color="#893976"/>
</linearGradient>
<linearGradient id="paint21_linear_552_6515" x1="30.2401" y1="154.906" x2="21.7688" y2="164.917" gradientUnits="userSpaceOnUse">
<stop stop-color="#444B8C"/>
<stop offset="0.9964" stop-color="#3E4177"/>
</linearGradient>
<linearGradient id="paint22_linear_552_6515" x1="23.9834" y1="156.007" x2="23.5021" y2="162.842" gradientUnits="userSpaceOnUse">
<stop stop-color="#311944"/>
<stop offset="1" stop-color="#893976"/>
</linearGradient>
<linearGradient id="paint23_linear_552_6515" x1="35.5387" y1="159.392" x2="27.0674" y2="169.404" gradientUnits="userSpaceOnUse">
<stop stop-color="#444B8C"/>
<stop offset="0.9964" stop-color="#3E4177"/>
</linearGradient>
<linearGradient id="paint24_linear_552_6515" x1="32.0094" y1="156.574" x2="31.5281" y2="163.409" gradientUnits="userSpaceOnUse">
<stop stop-color="#311944"/>
<stop offset="1" stop-color="#893976"/>
</linearGradient>
<linearGradient id="paint25_linear_552_6515" x1="37.6192" y1="134.692" x2="21.5489" y2="134.692" gradientUnits="userSpaceOnUse">
<stop stop-color="#444B8C"/>
<stop offset="0.9964" stop-color="#3E4177"/>
</linearGradient>
<linearGradient id="paint26_linear_552_6515" x1="37.6206" y1="134.692" x2="21.9336" y2="134.692" gradientUnits="userSpaceOnUse">
<stop stop-color="#444B8C"/>
<stop offset="0.9964" stop-color="#3E4177"/>
</linearGradient>
<linearGradient id="paint27_linear_552_6515" x1="40.156" y1="135.489" x2="21.4082" y2="135.489" gradientUnits="userSpaceOnUse">
<stop stop-color="#444B8C"/>
<stop offset="0.9964" stop-color="#3E4177"/>
</linearGradient>
<linearGradient id="paint28_linear_552_6515" x1="41.8698" y1="98.7427" x2="10.0078" y2="98.7427" gradientUnits="userSpaceOnUse">
<stop stop-color="#FFC444"/>
<stop offset="0.9964" stop-color="#F36F56"/>
</linearGradient>
<linearGradient id="paint29_linear_552_6515" x1="37.4016" y1="80.1125" x2="29.2432" y2="75.7084" gradientUnits="userSpaceOnUse">
<stop stop-color="#311944"/>
<stop offset="1" stop-color="#A03976"/>
</linearGradient>
<linearGradient id="paint30_linear_552_6515" x1="41.8699" y1="99.1508" x2="10.0079" y2="99.1508" gradientUnits="userSpaceOnUse">
<stop stop-color="#FFC444"/>
<stop offset="0.9964" stop-color="#F36F56"/>
</linearGradient>
<linearGradient id="paint31_linear_552_6515" x1="25.8794" y1="68.6115" x2="32.0163" y2="72.5103" gradientUnits="userSpaceOnUse">
<stop stop-color="#311944"/>
<stop offset="1" stop-color="#A03976"/>
</linearGradient>
<linearGradient id="paint32_linear_552_6515" x1="49.6554" y1="90.6372" x2="22.4042" y2="90.6372" gradientUnits="userSpaceOnUse">
<stop stop-color="#FFC444"/>
<stop offset="0.9964" stop-color="#F36F56"/>
</linearGradient>
<linearGradient id="paint33_linear_552_6515" x1="24.7321" y1="65.4395" x2="21.5883" y2="61.176" gradientUnits="userSpaceOnUse">
<stop stop-color="#AA80F9"/>
<stop offset="0.9964" stop-color="#6165D7"/>
</linearGradient>
<linearGradient id="paint34_linear_552_6515" x1="24.6761" y1="79.8092" x2="21.5177" y2="84.0926" gradientUnits="userSpaceOnUse">
<stop stop-color="#AA80F9"/>
<stop offset="0.9964" stop-color="#6165D7"/>
</linearGradient>
<linearGradient id="paint35_linear_552_6515" x1="39.1532" y1="65.2171" x2="42.1054" y2="61.2135" gradientUnits="userSpaceOnUse">
<stop stop-color="#AA80F9"/>
<stop offset="0.9964" stop-color="#6165D7"/>
</linearGradient>
<linearGradient id="paint36_linear_552_6515" x1="39.0963" y1="78.8932" x2="42.0365" y2="82.8806" gradientUnits="userSpaceOnUse">
<stop stop-color="#AA80F9"/>
<stop offset="0.9964" stop-color="#6165D7"/>
</linearGradient>
<linearGradient id="paint37_linear_552_6515" x1="103.004" y1="40.2766" x2="101.136" y2="8.82918" gradientUnits="userSpaceOnUse">
<stop stop-color="#311944"/>
<stop offset="1" stop-color="#893976"/>
</linearGradient>
<linearGradient id="paint38_linear_552_6515" x1="87.3002" y1="-24.3942" x2="118.222" y2="153.409" gradientUnits="userSpaceOnUse">
<stop stop-color="#FFC444"/>
<stop offset="0.9964" stop-color="#F36F56"/>
</linearGradient>
<linearGradient id="paint39_linear_552_6515" x1="104.478" y1="73.6706" x2="102.922" y2="49.8547" gradientUnits="userSpaceOnUse">
<stop stop-color="#893976"/>
<stop offset="1" stop-color="#311944"/>
</linearGradient>
<linearGradient id="paint40_linear_552_6515" x1="108.377" y1="52.0461" x2="81.9262" y2="70.8689" gradientUnits="userSpaceOnUse">
<stop stop-color="#893976"/>
<stop offset="1" stop-color="#311944"/>
</linearGradient>
<linearGradient id="paint41_linear_552_6515" x1="103.073" y1="40.2719" x2="101.205" y2="8.82459" gradientUnits="userSpaceOnUse">
<stop stop-color="#311944"/>
<stop offset="1" stop-color="#893976"/>
</linearGradient>
</defs>
</svg>
